<?xml version="1.0" encoding="iso-8859-1"?>
<!-- Generator: Adobe Illustrator 19.0.0, SVG Export Plug-In . SVG Version: 6.00 Build 0)  -->
<svg xmlns="http://www.w3.org/2000/svg" xmlns:xlink="http://www.w3.org/1999/xlink" version="1.1" id="Layer_1" x="0px" y="0px" viewBox="0 0 511.557 511.557" style="enable-background:new 0 0 511.557 511.557;" xml:space="preserve" width="512" height="512">
<g>
	<path d="M75.843,287.725c9.226-7.389,22.113-7.389,31.337,0l32.042,25.667c20.269,16.236,48.58,16.234,68.848,0l32.04-25.667   c9.226-7.389,22.112-7.389,31.337,0l32.041,25.667c20.271,16.237,48.58,16.233,68.849,0l32.041-25.667   c9.226-7.39,22.112-7.39,31.336,0l57.088,45.729l18.756-23.414l-57.088-45.729c-20.27-16.234-48.58-16.234-68.848,0l-32.041,25.667   c-9.226,7.389-22.111,7.39-31.337,0l-32.041-25.667c-20.27-16.233-48.58-16.233-68.849,0l-32.04,25.667   c-9.226,7.39-22.112,7.39-31.337,0l-32.042-25.667c-20.268-16.235-48.579-16.233-68.848,0L0,310.04l18.756,23.414L75.843,287.725z"/>
	<path d="M385.622,346.445l-32.041,25.666c-9.226,7.392-22.113,7.39-31.337,0l-32.041-25.666c-20.269-16.235-48.579-16.236-68.849,0   l-32.041,25.666c-9.226,7.391-22.111,7.391-31.337,0l-32.041-25.666c-20.268-16.236-48.58-16.236-68.848,0L0,392.174l18.756,23.414   l57.087-45.729c9.226-7.391,22.111-7.39,31.336,0l32.041,25.666c20.268,16.235,48.58,16.235,68.849,0l32.041-25.666   c9.226-7.391,22.111-7.39,31.337,0l32.041,25.666c20.269,16.235,48.58,16.235,68.849,0l32.041-25.666   c9.225-7.391,22.111-7.391,31.336,0l57.088,45.729l18.756-23.414l-57.088-45.729C434.2,330.207,405.889,330.207,385.622,346.445z"/>
	<path d="M385.622,428.578l-32.041,25.666c-9.226,7.391-22.113,7.391-31.337,0l-32.041-25.666   c-20.269-16.235-48.579-16.236-68.849,0l-32.041,25.666c-9.226,7.391-22.111,7.391-31.337,0l-32.041-25.666   c-20.268-16.235-48.58-16.237-68.848,0L0,474.308l18.756,23.414l57.087-45.729c9.226-7.391,22.111-7.391,31.336,0l32.041,25.666   c20.268,16.235,48.58,16.235,68.849,0l32.041-25.666c9.226-7.391,22.112-7.391,31.337,0l32.041,25.666   c20.269,16.235,48.58,16.235,68.849,0l32.041-25.666c9.225-7.391,22.111-7.391,31.336,0l57.088,45.729l18.756-23.414   l-57.088-45.729C434.2,412.341,405.889,412.341,385.622,428.578z"/>
	<polygon points="240.837,70.932 240.837,181.056 270.836,181.056 270.836,71.589 317.906,118.658 339.119,97.446 255.508,13.835    171.898,97.446 193.111,118.658  "/>
</g>















</svg>
